<svg width="18" height="18" viewBox="0 0 18 18" fill="none" xmlns="http://www.w3.org/2000/svg">
<path fill-rule="evenodd" clip-rule="evenodd" d="M2.20833 7.33341C2.20833 4.50296 4.50287 2.20841 7.33333 2.20841C10.1638 2.20841 12.4583 4.50296 12.4583 7.33341C12.4583 10.1639 10.1638 12.4584 7.33333 12.4584C4.50287 12.4584 2.20833 10.1639 2.20833 7.33341ZM7.33333 0.791748C3.72047 0.791748 0.791666 3.72055 0.791666 7.33341C0.791666 10.9463 3.72047 13.8751 7.33333 13.8751C8.8846 13.8751 10.3097 13.3351 11.4311 12.4329L15.9991 17.001C16.2758 17.2776 16.7242 17.2776 17.0009 17.001C17.2775 16.7243 17.2775 16.2758 17.0009 15.9992L12.4328 11.4312C13.335 10.3098 13.875 8.88468 13.875 7.33341C13.875 3.72055 10.9462 0.791748 7.33333 0.791748Z" fill="#141718"/>
</svg>
