<svg width="117" height="29" viewBox="0 0 117 29" fill="none" xmlns="http://www.w3.org/2000/svg">
<path d="M0.078125 23V1.125H11.4531V5.5H4.48438V9.9375H8.51562V14.3438H4.48438V18.5938H11.4531V23H0.078125ZM13.8281 23V10.0312C13.8281 8.98958 14.2969 7.96875 15.2344 6.96875C16.3802 5.78125 17.8073 5.17708 19.5156 5.15625V9.3125C18.6406 9.41667 18.1615 9.82292 18.0781 10.5312V23H13.8281ZM20.9531 9.3125V5.15625C22.974 5.15625 24.5677 5.95833 25.7344 7.5625C26.3594 8.4375 26.6719 9.26042 26.6719 10.0312V23H22.4219V10.5312C22.4219 9.84375 22.0365 9.44792 21.2656 9.34375C21.1615 9.32292 21.0573 9.3125 20.9531 9.3125ZM29.0469 18.1562V9.96875C29.0677 8.94792 29.5365 7.94792 30.4531 6.96875C31.5781 5.80208 32.9531 5.20833 34.5781 5.1875V9.125C33.974 9.125 33.5573 9.38542 33.3281 9.90625C33.2656 10.0312 33.2344 10.1458 33.2344 10.25V11.8125H37.8906V10.2812C37.8698 9.51042 37.3281 9.125 36.2656 9.125V5.1875C37.7865 5.1875 39.1198 5.70833 40.2656 6.75C41.2656 7.66667 41.776 8.72917 41.7969 9.9375V15.8438H33.2344V18.1562C33.3802 18.7604 33.8385 19.0938 34.6094 19.1562V23C32.651 23 31.099 22.1979 29.9531 20.5938C29.349 19.7396 29.0469 18.9271 29.0469 18.1562ZM36.2656 23V19.1875C37.3906 19.1667 38.1094 18.6354 38.4219 17.5938L41.8281 18.875C41.5156 20.2083 40.724 21.2812 39.4531 22.0938C38.474 22.6979 37.4115 23 36.2656 23ZM44.3281 23V5.1875H48.5781V7.15625C49.3073 6.21875 50.2969 5.57292 51.5469 5.21875C51.9844 5.09375 52.4219 5.03125 52.8594 5.03125H53.9844L53.0156 9.21875C51.7031 9.23958 50.5677 9.8125 49.6094 10.9375C48.9219 11.75 48.5781 12.5938 48.5781 13.4688V23H44.3281ZM54.9219 28.9375L55.8906 25.0938H62.0781C62.7448 25.0729 63.1719 24.7708 63.3594 24.1875C63.3802 24.1458 63.3906 24.1146 63.3906 24.0938V22.625C62.9531 22.7083 62.4844 22.75 61.9844 22.75V18.875C62.8802 18.8333 63.349 18.4896 63.3906 17.8438V9.875C63.3906 9.58333 63.2031 9.32292 62.8281 9.09375C62.5781 8.94792 62.2969 8.875 61.9844 8.875V4.96875C62.4844 4.96875 62.9531 5.03125 63.3906 5.15625V4.96875H67.3906V24.0938C67.3906 25.0104 66.9844 25.9583 66.1719 26.9375C65.0885 28.25 63.7448 28.9167 62.1406 28.9375H54.9219ZM55.2344 17.9375V9.71875C55.2552 8.71875 55.7031 7.73958 56.5781 6.78125C57.6615 5.59375 59.0156 4.98958 60.6406 4.96875V8.875C59.8906 8.875 59.4115 9.14583 59.2031 9.6875C59.1823 9.75 59.1719 9.79167 59.1719 9.8125V17.9062C59.1719 18.3854 59.474 18.6875 60.0781 18.8125C60.2448 18.8542 60.4323 18.875 60.6406 18.875V22.75C58.6823 22.75 57.1615 21.9271 56.0781 20.2812C55.5156 19.4479 55.2344 18.6667 55.2344 17.9375ZM70.1094 2.65625C70.1094 1.80208 70.4948 1.15625 71.2656 0.71875C71.6198 0.510417 71.9948 0.40625 72.3906 0.40625C73.2656 0.40625 73.9219 0.791667 74.3594 1.5625C74.5469 1.91667 74.6406 2.28125 74.6406 2.65625C74.6406 3.53125 74.2552 4.1875 73.4844 4.625C73.1302 4.8125 72.7656 4.90625 72.3906 4.90625C71.4948 4.90625 70.8281 4.51042 70.3906 3.71875C70.2031 3.38542 70.1094 3.03125 70.1094 2.65625ZM70.3281 23V6.125H74.5156V23H70.3281ZM77.1406 23V18.9062L82.5469 9.25H77.1406V5.1875H87.3281V9.25L82.0781 18.9062H87.3281V23H77.1406ZM89.4531 18.1562V9.96875C89.474 8.94792 89.9427 7.94792 90.8594 6.96875C91.9844 5.80208 93.3594 5.20833 94.9844 5.1875V9.125C94.3802 9.125 93.9635 9.38542 93.7344 9.90625C93.6719 10.0312 93.6406 10.1458 93.6406 10.25V11.8125H98.2969V10.2812C98.276 9.51042 97.7344 9.125 96.6719 9.125V5.1875C98.1927 5.1875 99.526 5.70833 100.672 6.75C101.672 7.66667 102.182 8.72917 102.203 9.9375V15.8438H93.6406V18.1562C93.7865 18.7604 94.2448 19.0938 95.0156 19.1562V23C93.0573 23 91.5052 22.1979 90.3594 20.5938C89.7552 19.7396 89.4531 18.9271 89.4531 18.1562ZM96.6719 23V19.1875C97.7969 19.1667 98.5156 18.6354 98.8281 17.5938L102.234 18.875C101.922 20.2083 101.13 21.2812 99.8594 22.0938C98.8802 22.6979 97.8177 23 96.6719 23ZM103.891 23L108.141 11.7188L104.266 1.125H108.547L110.328 5.875L112.109 1.125H116.391L112.516 11.7188L116.766 23H112.234L110.328 17.7812L108.422 23H103.891Z" fill="black"/>
</svg>
