<svg width="30" height="30" viewBox="0 0 30 30" fill="none" xmlns="http://www.w3.org/2000/svg">
<path d="M23.7451 25.0652C22.4205 21.5224 19.0048 19.0001 15 19.0001C10.9952 19.0001 7.57947 21.5224 6.25489 25.0652M23.7451 25.0652C26.5562 22.6207 28.3333 19.0179 28.3333 15.0001C28.3333 7.63628 22.3638 1.66675 15 1.66675C7.63621 1.66675 1.66667 7.63628 1.66667 15.0001C1.66667 19.0179 3.4438 22.6207 6.25489 25.0652M23.7451 25.0652C21.4041 27.1009 18.346 28.3334 15 28.3334C11.654 28.3334 8.59592 27.1009 6.25489 25.0652M19 11.0001C19 13.2092 17.2091 15.0001 15 15.0001C12.7909 15.0001 11 13.2092 11 11.0001C11 8.79094 12.7909 7.00008 15 7.00008C17.2091 7.00008 19 8.79094 19 11.0001Z" stroke="#141718" stroke-width="2.25" stroke-linejoin="round"/>
</svg>
