<svg width="49" height="33" viewBox="0 0 49 33" fill="none" xmlns="http://www.w3.org/2000/svg">
<rect x="1" y="0.80957" width="47" height="31" rx="3.5" fill="white" stroke="#E8ECEF"/>
<path fill-rule="evenodd" clip-rule="evenodd" d="M26.066 10.3425L23.5462 10.8833V8.84034L26.066 8.30957V10.3425ZM15.8263 9.47108L13.3768 9.99178L13.3668 18.0125C13.3668 19.4944 14.4811 20.5859 15.9669 20.5859C16.7901 20.5859 17.3924 20.4357 17.7237 20.2554V18.2227C17.4025 18.3529 15.8163 18.8135 15.8163 17.3316V13.7768H17.7237V11.644H15.8163L15.8263 9.47108ZM9.8932 13.6467C9.36113 13.6467 9.03988 13.7969 9.03988 14.1874C9.03988 14.6138 9.59276 14.8013 10.2787 15.034C11.3969 15.4134 12.8686 15.9127 12.8748 17.7622C12.8748 19.5545 11.4392 20.5859 9.35109 20.5859C8.48773 20.5859 7.54406 20.4157 6.61043 20.0152V17.632C7.45371 18.0926 8.51785 18.4331 9.35109 18.4331C9.91328 18.4331 10.3148 18.2829 10.3148 17.8222C10.3148 17.3499 9.71552 17.1341 8.99196 16.8734C7.89004 16.4765 6.5 15.9758 6.5 14.3076C6.5 12.5352 7.85527 11.4738 9.8932 11.4738C10.7264 11.4738 11.5496 11.6039 12.3829 11.9344V14.2875C11.6199 13.877 10.6562 13.6467 9.8932 13.6467ZM20.8459 12.385L20.6853 11.644H18.5168V20.4057H21.0266V14.4678C21.6189 13.6967 22.6228 13.8369 22.934 13.9471V11.644C22.6128 11.5238 21.4382 11.3036 20.8459 12.385ZM23.5462 11.644H26.066V20.4056H23.5462V11.644ZM42.6404 16.0599C42.6404 13.4965 41.3956 11.4738 39.0163 11.4738C36.627 11.4738 35.1814 13.4965 35.1814 16.0399C35.1814 19.0539 36.888 20.5759 39.3376 20.5759C40.5322 20.5759 41.4357 20.3055 42.1184 19.925V17.9224C41.4357 18.2628 40.6527 18.4731 39.6588 18.4731C38.685 18.4731 37.8217 18.1326 37.7112 16.9511H42.6203C42.6203 16.8959 42.6239 16.7705 42.6281 16.6261L42.6281 16.6252C42.6338 16.4291 42.6404 16.1981 42.6404 16.0599ZM37.6814 15.1088C37.6814 13.9772 38.3741 13.5065 39.0066 13.5065C39.6189 13.5065 40.2715 13.9772 40.2715 15.1088H37.6814ZM29.3385 12.2548C29.6899 11.9344 30.3223 11.4738 31.3061 11.4738C33.063 11.4738 34.7194 13.0559 34.7295 15.9598C34.7295 19.134 33.0931 20.5759 31.2961 20.5759C30.4127 20.5759 29.8806 20.2054 29.5192 19.9451L29.5092 22.7789L26.9994 23.3096V11.634H29.208L29.3385 12.2548ZM29.519 17.9028C29.7599 18.1632 30.1113 18.3735 30.7036 18.3735C31.6272 18.3735 32.2496 17.372 32.2496 16.0301C32.2496 14.7182 31.6172 13.6967 30.7036 13.6967C30.1314 13.6967 29.77 13.897 29.509 14.1874L29.519 17.9028Z" fill="#6461FC"/>
</svg>
