<svg width="49" height="33" viewBox="0 0 49 33" fill="none" xmlns="http://www.w3.org/2000/svg">
<rect x="1" y="0.80957" width="47" height="31" rx="3.5" fill="white" stroke="#E8ECEF"/>
<path fill-rule="evenodd" clip-rule="evenodd" d="M12.7718 11.7772C13.3718 11.8279 13.9719 11.4735 14.3469 11.0243C14.7157 10.5624 14.9595 9.94231 14.897 9.30957C14.3657 9.33488 13.7094 9.6639 13.3343 10.1258C12.9905 10.5244 12.6967 11.1698 12.7718 11.7772ZM19.9101 19.9256V10.0624H23.5667C25.4545 10.0624 26.7734 11.3784 26.7734 13.3017C26.7734 15.2249 25.4295 16.5535 23.5167 16.5535H21.4227V19.9256H19.9101ZM14.8908 11.8971C14.3622 11.8664 13.8798 12.0581 13.4902 12.2129C13.2394 12.3126 13.0271 12.397 12.8656 12.397C12.6843 12.397 12.4632 12.3081 12.215 12.2082C11.8897 12.0775 11.5179 11.9279 11.1279 11.9351C10.234 11.9478 9.40269 12.4602 8.94639 13.2764C8.00878 14.9086 8.70261 17.3254 9.60896 18.654C10.0528 19.312 10.5841 20.0332 11.2842 20.0079C11.5921 19.9961 11.8137 19.901 12.043 19.8025C12.307 19.6891 12.5812 19.5714 13.0094 19.5714C13.4227 19.5714 13.6849 19.6861 13.9366 19.7962C14.176 19.9009 14.4058 20.0014 14.7471 19.9952C15.4721 19.9826 15.9284 19.3373 16.3722 18.6793C16.8512 17.9731 17.0616 17.2839 17.0936 17.1793L17.0973 17.1672C17.0966 17.1665 17.0906 17.1637 17.0802 17.1589C16.9201 17.0847 15.6964 16.5177 15.6847 14.9972C15.6729 13.721 16.6553 13.0744 16.8099 12.9726C16.8193 12.9664 16.8257 12.9622 16.8285 12.96C16.2035 12.0237 15.2284 11.9225 14.8908 11.8971ZM29.5365 20.0016C30.4866 20.0016 31.368 19.5144 31.768 18.7426H31.7993V19.9257H33.1994V15.0162C33.1994 13.5927 32.0743 12.6753 30.3428 12.6753C28.7364 12.6753 27.5488 13.6054 27.505 14.8833H28.8677C28.9802 14.276 29.5365 13.8774 30.2991 13.8774C31.2242 13.8774 31.743 14.3139 31.743 15.1174V15.6615L29.8553 15.7754C28.0988 15.883 27.1487 16.6105 27.1487 17.8758C27.1487 19.1538 28.1301 20.0016 29.5365 20.0016ZM29.9425 18.8314C29.1362 18.8314 28.6236 18.4391 28.6236 17.838C28.6236 17.2179 29.1174 16.8573 30.0613 16.8003L31.7427 16.6928V17.2496C31.7427 18.1734 30.9677 18.8314 29.9425 18.8314ZM37.8432 20.3116C37.2369 22.0387 36.5431 22.6081 35.0679 22.6081C34.9554 22.6081 34.5804 22.5955 34.4929 22.5702V21.3871C34.5866 21.3998 34.8179 21.4124 34.9367 21.4124C35.6055 21.4124 35.9805 21.1277 36.2118 20.3875L36.3493 19.951L33.7865 12.7702H35.368L37.1494 18.5971H37.1807L38.9621 12.7702H40.4998L37.8432 20.3116ZM21.4229 11.3531H23.1668C24.4795 11.3531 25.2295 12.0617 25.2295 13.3082C25.2295 14.5547 24.4795 15.2697 23.1606 15.2697H21.4229V11.3531Z" fill="black"/>
</svg>
