<svg width="49" height="33" viewBox="0 0 49 33" fill="none" xmlns="http://www.w3.org/2000/svg">
<rect x="1" y="0.80957" width="47" height="31" rx="3.5" fill="white" stroke="#E8ECEF"/>
<path fill-rule="evenodd" clip-rule="evenodd" d="M10.0034 11.3108H7.08442C6.88467 11.3108 6.71479 11.4559 6.68364 11.653L5.50306 19.1373C5.4796 19.285 5.59398 19.4181 5.7438 19.4181H7.13734C7.33709 19.4181 7.50697 19.273 7.53812 19.0755L7.85654 17.0569C7.88725 16.8592 8.05755 16.7142 8.25688 16.7142H9.18093C11.1038 16.7142 12.2134 15.7838 12.5034 13.9402C12.6339 13.1337 12.5089 12.4999 12.131 12.0559C11.7163 11.5687 10.9803 11.3108 10.0034 11.3108ZM10.3402 14.0443C10.1806 15.0916 9.38026 15.0916 8.60645 15.0916H8.16597L8.47498 13.1356C8.49333 13.0175 8.59576 12.9304 8.71528 12.9304H8.91716C9.44427 12.9304 9.94156 12.9304 10.1985 13.2308C10.3516 13.4102 10.3986 13.6764 10.3402 14.0443ZM18.7289 14.0107H17.3311C17.212 14.0107 17.1091 14.0978 17.0907 14.2161L17.0289 14.607L16.9311 14.4654C16.6285 14.0261 15.9538 13.8794 15.2802 13.8794C13.7355 13.8794 12.4163 15.0492 12.1593 16.6901C12.0258 17.5086 12.2156 18.2912 12.6799 18.8371C13.106 19.3389 13.7155 19.5481 14.4406 19.5481C15.6852 19.5481 16.3755 18.7478 16.3755 18.7478L16.3131 19.1363C16.2896 19.2848 16.4039 19.4179 16.5528 19.4179H17.812C18.0123 19.4179 18.1812 19.2728 18.2128 19.0753L18.9683 14.2916C18.9922 14.1444 18.8782 14.0107 18.7289 14.0107ZM16.7804 16.731C16.6455 17.5295 16.0117 18.0655 15.2034 18.0655C14.7975 18.0655 14.473 17.9353 14.2648 17.6887C14.0582 17.4438 13.9796 17.095 14.0454 16.7067C14.1714 15.915 14.8159 15.3616 15.6119 15.3616C16.0087 15.3616 16.3314 15.4933 16.544 15.7422C16.7569 15.9936 16.8414 16.3443 16.7804 16.731ZM24.7688 14.0105H26.1735C26.3702 14.0105 26.485 14.2311 26.3732 14.3925L21.7013 21.1353C21.6257 21.2445 21.501 21.3095 21.3679 21.3095H19.965C19.7674 21.3095 19.6521 21.0871 19.7664 20.9254L21.2212 18.8722L19.674 14.3323C19.6205 14.1745 19.737 14.0105 19.9049 14.0105H21.2852C21.4645 14.0105 21.6227 14.1282 21.6745 14.2999L22.4955 17.0419L24.433 14.1885C24.5088 14.0771 24.6348 14.0105 24.7688 14.0105Z" fill="#253B80"/>
<path fill-rule="evenodd" clip-rule="evenodd" d="M39.9992 19.1365L41.1972 11.5154C41.2156 11.3971 41.3181 11.31 41.4372 11.3096H42.7858C42.9347 11.3096 43.0491 11.4431 43.0256 11.5908L41.8442 19.0746C41.8134 19.2721 41.6436 19.4173 41.4435 19.4173H40.239C40.0901 19.4173 39.9757 19.2842 39.9992 19.1365ZM30.8248 11.31H27.9053C27.706 11.31 27.5361 11.4551 27.5049 11.6522L26.3244 19.1365C26.3009 19.2842 26.4152 19.4173 26.5643 19.4173H28.0623C28.2016 19.4173 28.3207 19.3158 28.3424 19.1775L28.6774 17.0561C28.7082 16.8584 28.8785 16.7134 29.0777 16.7134H30.0013C31.9246 16.7134 33.034 15.783 33.3242 13.9394C33.4551 13.1328 33.3293 12.4991 32.9516 12.0551C32.5371 11.5679 31.8017 11.31 30.8248 11.31ZM31.1615 14.0435C31.0024 15.0908 30.202 15.0908 29.4277 15.0908H28.9877L29.2972 13.1348C29.3156 13.0167 29.4171 12.9296 29.537 12.9296H29.7388C30.2656 12.9296 30.7634 12.9296 31.0201 13.23C31.1734 13.4093 31.22 13.6755 31.1615 14.0435ZM39.5495 14.0099H38.1527C38.0326 14.0099 37.9306 14.097 37.9127 14.2153L37.8509 14.6061L37.7527 14.4645C37.4501 14.0253 36.7758 13.8786 36.1022 13.8786C34.5575 13.8786 33.2386 15.0483 32.9817 16.6893C32.8485 17.5077 33.0376 18.2904 33.5019 18.8363C33.9288 19.3381 34.5375 19.5472 35.2626 19.5472C36.5071 19.5472 37.1973 18.747 37.1973 18.747L37.1351 19.1355C37.1115 19.284 37.2259 19.4171 37.3758 19.4171H38.6344C38.8337 19.4171 39.0036 19.2719 39.0348 19.0744L39.7907 14.2907C39.8138 14.1436 39.6994 14.0099 39.5495 14.0099ZM37.6012 16.7302C37.4671 17.5287 36.8325 18.0647 36.024 18.0647C35.6189 18.0647 35.2938 17.9345 35.0854 17.6878C34.8788 17.4429 34.8012 17.0942 34.8662 16.7059C34.9928 15.9141 35.6365 15.3608 36.4325 15.3608C36.8295 15.3608 37.152 15.4925 37.3648 15.7413C37.5785 15.9927 37.663 16.3435 37.6012 16.7302Z" fill="#179BD7"/>
</svg>
