<svg width="49" height="33" viewBox="0 0 49 33" fill="none" xmlns="http://www.w3.org/2000/svg">
<rect x="1" y="0.80957" width="47" height="31" rx="3.5" fill="white" stroke="#E8ECEF"/>
<path d="M21.3458 22.2966H18.0098L20.0963 9.54065H23.4321L21.3458 22.2966Z" fill="#00579F"/>
<path d="M33.4377 9.85264C32.7797 9.59454 31.7361 9.30957 30.4456 9.30957C27.1512 9.30957 24.8313 11.0465 24.8171 13.5297C24.7897 15.3618 26.4781 16.3794 27.7408 16.9903C29.0315 17.6146 29.4702 18.022 29.4702 18.5784C29.4571 19.433 28.4273 19.8269 27.4668 19.8269C26.1349 19.8269 25.4213 19.6238 24.3368 19.1484L23.8975 18.9446L23.4307 21.808C24.2131 22.1604 25.6546 22.4732 27.1512 22.4869C30.6516 22.4869 32.9304 20.7769 32.9574 18.1306C32.9707 16.6785 32.0792 15.5658 30.1572 14.6566C28.9904 14.073 28.2759 13.6794 28.2759 13.0822C28.2895 12.5393 28.8802 11.9833 30.1973 11.9833C31.2818 11.956 32.0787 12.2138 32.6823 12.4717L32.984 12.6071L33.4377 9.85264Z" fill="#00579F"/>
<path d="M37.8732 17.7777C38.148 17.0448 39.2051 14.2086 39.2051 14.2086C39.1913 14.2359 39.4793 13.4623 39.644 12.9874L39.8772 14.0865C39.8772 14.0865 40.5089 17.1399 40.6461 17.7777C40.1247 17.7777 38.5322 17.7777 37.8732 17.7777ZM41.9911 9.54065H39.4107C38.615 9.54065 38.0104 9.77115 37.6671 10.599L32.7119 22.2965H36.2123C36.2123 22.2965 36.7886 20.7221 36.9124 20.383C37.2964 20.383 40.7016 20.383 41.1956 20.383C41.2913 20.8308 41.5936 22.2965 41.5936 22.2965H44.6824L41.9911 9.54065Z" fill="#00579F"/>
<path d="M15.2231 9.54065L11.9561 18.239L11.5991 16.4749C10.995 14.4393 9.10075 12.2277 6.98682 11.128L9.97931 22.2831H13.507L18.7506 9.54065H15.2231Z" fill="#00579F"/>
<path d="M8.9222 9.54065H3.55491L3.5 9.79842C7.68682 10.8571 10.4597 13.409 11.5989 16.4762L10.4321 10.613C10.24 9.79824 9.64971 9.56753 8.9222 9.54065Z" fill="#FAA61A"/>
</svg>
